<svg enable-background="new 0 0 100 100" version="1.1" viewBox="0 0 100 100" xml:space="preserve" xmlns="http://www.w3.org/2000/svg">
<style type="text/css">
	.st0{fill:#FFFFFF;}
</style>

	<path class="st0" d="m35 76c-2.5-0.44-4.3-2.4-4.7-5l-0.08-0.61-1.4-0.05c-1.6-0.07-2.1-0.27-3-1.1-0.6-0.59-0.98-1.3-1.1-2.2l-0.08-0.51h13v-0.36c0-0.58-0.44-1.6-0.92-2.2-0.24-0.29-0.72-0.68-1.1-0.89l-0.62-0.36-4.8-0.07v-5.7l-1.4-0.06c-1.6-0.06-2.3-0.3-3.1-1.2-0.58-0.61-0.95-1.3-1.1-2.2l-0.08-0.51h13v-0.35c0-1.2-1.1-2.8-2.4-3.2-0.59-0.23-0.9-0.26-2.9-0.26h-2.2v-5.8l-1.4-0.05c-1-0.05-1.5-0.12-1.9-0.31-1.1-0.53-2.1-1.8-2.2-3l-0.07-0.51h13v-0.36c0-1.2-1.1-2.8-2.4-3.2-0.59-0.23-0.9-0.26-2.9-0.26h-2.2v-2.1c0-1.2 0.06-2.4 0.13-2.8 0.4-2.3 2.2-4.2 4.4-4.6 0.47-0.1 6-0.13 18-0.13h17l0.52 0.27c0.56 0.29 1 1.1 1 1.7 0 0.51-0.48 1.4-0.93 1.6-0.4 0.24-0.6 0.25-17 0.31l-17 0.06-0.31 0.3c-0.38 0.38-0.38 0.84 0 1.2l0.31 0.3 34 0.11 0.69 0.27c1.7 0.69 2.9 1.9 3.5 3.8 0.2 0.64 0.21 1.4 0.21 18s-0.01 17-0.21 18c-0.59 1.8-1.8 3.1-3.5 3.8l-0.69 0.27-17 0.01c-9.6 0-18-0.02-18-0.05zm28-7.7c2.6-1 3.3-2.3 2.3-3.9-0.4-0.67-2.8-4-3.4-4.7-0.37-0.42-1.1-0.79-1.6-0.79-0.22 0-0.81 0.21-1.4 0.52-0.56 0.29-1.2 0.57-1.4 0.61-1.3 0.3-2.7-1.2-4.2-4.3-1.1-2.5-1.6-4.3-1.2-5.3 0.19-0.61 0.87-1.2 1.9-1.6 0.5-0.19 1-0.49 1.2-0.69 0.33-0.34 0.58-0.99 0.59-1.5 0-0.52-1.3-5.8-1.6-6.4-0.67-1.4-2-1.5-4.3-0.28-1.6 0.83-2.7 2.3-3.1 4.4-0.26 1.3-0.18 4 0.19 5.8 0.95 4.7 3.8 11 6.8 14 1.5 1.9 3.4 3.3 5 3.9 0.83 0.31 1 0.34 2.1 0.3 0.98-0.04 1.3-0.11 2.1-0.44z"/>

</svg>
